<svg width="94" height="65" viewBox="0 0 94 65" fill="none" xmlns="http://www.w3.org/2000/svg">
<path d="M71.471 0.883423C63.8691 0.883423 54.7727 2.11792 44.9617 3.22247C20.4017 5.82142 0.0649736 6.34121 0 24.209V24.3389C0 25.2485 0.0649736 26.1582 0.194921 27.1977C2.40402 47.9893 25.7295 67.4814 51.589 64.6875C77.4485 61.8936 96.031 37.8534 93.8219 17.0619C92.3925 4.19708 83.9459 0.883423 71.471 0.883423Z" fill="#531BA2"/>
<path d="M14.294 32.2657C13.2544 31.7459 12.4098 30.9662 11.825 29.9266C11.2402 28.8871 10.9803 27.7175 10.9803 26.3531C10.9803 24.9886 11.2402 23.8191 11.825 22.7795C12.4098 21.74 13.1894 21.0252 14.294 20.4405C15.3336 19.9207 16.5681 19.5958 17.9975 19.5958C18.9071 19.5958 19.7518 19.6608 20.4665 19.8557C21.1812 20.0506 21.8309 20.3105 22.4807 20.7004V23.7541C21.9609 23.2993 21.3111 23.0394 20.6614 22.8445C20.0117 22.6496 19.232 22.5846 18.3224 22.5846C17.5427 22.5846 16.8929 22.7146 16.3082 23.0394C15.7234 23.3643 15.2686 23.7541 14.8788 24.3389C14.5539 24.9237 14.359 25.5734 14.359 26.2881C14.359 27.4576 14.6838 28.3673 15.3986 29.017C16.0483 29.6667 17.0229 30.0566 18.1274 30.0566C18.7772 30.0566 19.297 29.9266 19.7518 29.7317V27.6526H17.8026V25.3785H22.8705V31.7459C21.571 32.5256 19.9467 32.9154 18.0625 32.9154C16.5681 33.1103 15.3986 32.8504 14.294 32.2657Z" fill="white"/>
<path d="M25.989 32.5256C25.2743 32.1358 24.7545 31.616 24.3647 30.9013C23.9748 30.1866 23.7799 29.4069 23.7799 28.4323C23.7799 27.5227 23.9748 26.678 24.3647 25.9633C24.7545 25.2486 25.2743 24.7288 25.989 24.274C26.7037 23.8841 27.4834 23.6892 28.458 23.6892C29.0428 23.6892 29.6275 23.7542 30.1473 23.9491C30.6671 24.144 31.1219 24.3389 31.4468 24.6638V23.9491H34.6955V32.7205H31.5767V31.8109C30.7321 32.5906 29.6925 32.9804 28.458 32.9804C27.4834 33.1104 26.7037 32.9155 25.989 32.5256ZM30.6021 30.2515C30.992 29.9917 31.2519 29.6668 31.4468 29.212V27.6526C31.2519 27.1978 30.992 26.8729 30.6021 26.613C30.2123 26.3531 29.7575 26.2232 29.3027 26.2232C28.6529 26.2232 28.1331 26.4181 27.6783 26.8079C27.2885 27.1978 27.0936 27.7176 27.0936 28.4323C27.0936 29.082 27.2885 29.6018 27.6783 29.9916C28.0682 30.3815 28.588 30.5764 29.3027 30.5764C29.7575 30.5764 30.2123 30.4465 30.6021 30.2515Z" fill="white"/>
<path d="M39.3737 31.9409V32.8506H36.255V20.3107H39.5037V24.7289C39.8286 24.404 40.2834 24.2091 40.8032 24.0142C41.3229 23.8192 41.9077 23.7543 42.4925 23.7543C43.4021 23.7543 44.2468 23.9492 44.9615 24.339C45.6762 24.7289 46.196 25.3136 46.5858 26.0283C46.9756 26.7431 47.1706 27.5877 47.1706 28.4973C47.1706 29.407 46.9756 30.2516 46.5858 30.9663C46.196 31.681 45.6762 32.2008 44.9615 32.5907C44.2468 32.9805 43.4671 33.1754 42.5574 33.1754C41.258 33.1105 40.2184 32.7206 39.3737 31.9409ZM43.2722 29.9917C43.662 29.6019 43.8569 29.0821 43.8569 28.4324C43.8569 27.7826 43.662 27.1979 43.2722 26.808C42.8823 26.4182 42.3625 26.2233 41.6478 26.2233C41.128 26.2233 40.7382 26.3532 40.3483 26.6131C39.9585 26.873 39.6986 27.1979 39.5037 27.6527V29.2121C39.6986 29.6669 39.9585 29.9917 40.3483 30.2516C40.7382 30.5115 41.193 30.6415 41.6478 30.6415C42.2975 30.5765 42.8823 30.3816 43.2722 29.9917Z" fill="white"/>
<path d="M48.4702 24.0141H51.5889V25.1187C51.9138 24.7288 52.4336 24.4039 53.0183 24.209C53.6681 24.0141 54.3178 23.8842 55.0975 23.8842V26.3532C54.3178 26.3532 53.6031 26.4831 52.9534 26.678C52.3686 26.9379 51.9138 27.2628 51.6539 27.7176V32.7855H48.4052V24.0141H48.4702Z" fill="white"/>
<path d="M56.1369 24.0141H59.3856V32.7856H56.1369V24.0141ZM57.6963 22.5847C57.4364 22.5847 57.1765 22.5197 56.9166 22.4548C56.6567 22.3898 56.4618 22.2598 56.2669 22.1299C56.0719 21.9999 55.942 21.87 55.877 21.6751C55.7471 21.4801 55.7471 21.2852 55.7471 21.0903C55.7471 20.8304 55.812 20.6355 55.877 20.4406C56.007 20.2457 56.1369 20.1157 56.2669 19.9858C56.4618 19.8558 56.6567 19.7908 56.9166 19.7259C57.1765 19.6609 57.4364 19.6609 57.6963 19.6609C57.9562 19.6609 58.2161 19.6609 58.476 19.7259C58.7359 19.7908 58.9308 19.8558 59.1257 19.9858C59.3206 20.1157 59.4506 20.2457 59.5155 20.4406C59.6455 20.6355 59.6455 20.8304 59.6455 21.0903C59.6455 21.2852 59.5805 21.4801 59.5155 21.6751C59.3856 21.87 59.2556 21.9999 59.1257 22.1299C58.9308 22.2598 58.7359 22.3248 58.476 22.4548C58.281 22.5847 58.0211 22.5847 57.6963 22.5847Z" fill="white"/>
<path d="M62.1145 31.876C61.2048 31.0963 60.6851 29.9268 60.6851 28.4324C60.6851 26.938 61.1399 25.7685 62.1145 24.9888C63.0891 24.1441 64.3236 23.7543 65.9479 23.7543C66.6626 23.7543 67.3124 23.8192 67.9621 23.9492C68.6118 24.0791 69.1316 24.2741 69.5215 24.534V27.0679C68.8068 26.5481 67.7672 26.2882 66.5977 26.2882C65.818 26.2882 65.1682 26.4832 64.7134 26.808C64.2586 27.1979 63.9987 27.7177 63.9987 28.4324C63.9987 29.1471 64.2586 29.7318 64.7134 30.0567C65.1682 30.3816 65.818 30.5765 66.5977 30.5765C67.7672 30.5765 68.8068 30.3166 69.6514 29.7318V32.2008C68.7418 32.7856 67.5073 33.0455 65.9479 33.0455C64.3886 33.1105 63.0891 32.6557 62.1145 31.876Z" fill="white"/>
<path d="M72.8351 32.5256C72.1204 32.1358 71.6006 31.616 71.2107 30.9013C70.8209 30.1866 70.626 29.4069 70.626 28.4323C70.626 27.5227 70.8209 26.678 71.2107 25.9633C71.6006 25.2486 72.1204 24.7288 72.8351 24.274C73.5498 23.8841 74.3295 23.6892 75.3041 23.6892C75.8888 23.6892 76.4736 23.7542 76.9934 23.9491C77.5132 24.144 77.968 24.3389 78.2929 24.6638V23.9491H81.5415V32.7205H78.4228V31.8109C77.5782 32.5906 76.5386 32.9804 75.3041 32.9804C74.3295 33.1104 73.5498 32.9155 72.8351 32.5256ZM77.4482 30.2515C77.838 29.9917 78.0979 29.6668 78.2929 29.212V27.6526C78.0979 27.1978 77.838 26.8729 77.4482 26.613C77.0584 26.3531 76.6035 26.2232 76.1487 26.2232C75.499 26.2232 74.9792 26.4181 74.5244 26.8079C74.1346 27.1978 73.9396 27.7176 73.9396 28.4323C73.9396 29.082 74.1346 29.6018 74.5244 29.9916C74.9142 30.3815 75.434 30.5764 76.1487 30.5764C76.6035 30.5764 77.0584 30.4465 77.4482 30.2515Z" fill="white"/>
</svg>
