<svg width="31" height="30" viewBox="0 0 31 30" fill="none" xmlns="http://www.w3.org/2000/svg">
<path d="M15.5 6.46875C10.6562 6.46875 6.68438 10.3125 6.68438 15C6.68438 19.6875 10.6078 23.4844 15.4516 23.4844C20.2953 23.4844 24.2188 19.6875 24.2188 15C24.2672 10.3125 20.3438 6.46875 15.5 6.46875ZM19.5203 18.75C19.3266 18.9844 19.0359 19.0781 18.7937 18.9375C16.7109 17.7188 14.1437 17.4375 11.0437 18.1406C10.7531 18.2344 10.4625 18 10.3656 17.7656C10.2688 17.4844 10.5109 17.2031 10.7531 17.1094C14.0953 16.4062 17.0016 16.6875 19.2781 18.0469C19.6172 18.1875 19.6656 18.5156 19.5203 18.75ZM20.5859 16.4531C20.3438 16.7344 19.9562 16.875 19.6656 16.6875C17.2922 15.2812 13.7078 14.8594 10.9469 15.7031C10.6078 15.7969 10.2203 15.6094 10.1234 15.2812C10.0266 14.9531 10.2203 14.5781 10.5594 14.4844C13.7562 13.5469 17.7281 14.0156 20.4406 15.6094C20.6828 15.7031 20.7797 16.125 20.5859 16.4531ZM20.6828 14.0625C17.8734 12.4688 13.175 12.2812 10.5109 13.0781C10.075 13.2188 9.63906 12.9375 9.49375 12.5625C9.34844 12.1406 9.63906 11.7188 10.0266 11.5781C13.1266 10.6875 18.2609 10.875 21.5063 12.7031C21.8938 12.9375 22.0391 13.4062 21.7969 13.8281C21.6031 14.1562 21.0703 14.25 20.6828 14.0625ZM15.5 0C6.92656 0 0 6.70312 0 15C0 23.2969 6.92656 30 15.5 30C24.025 30 31 23.2969 31 15C31 6.70312 24.025 0 15.5 0ZM15.5 29.0625C7.45937 29.0625 0.920312 22.7344 0.920312 15C0.920312 7.21875 7.45937 0.890625 15.5 0.890625C23.4922 0.890625 30.0312 7.21875 30.0312 15C30.0312 22.7344 23.4922 29.0625 15.5 29.0625Z" fill="url(#paint0_linear)"/>
<defs>
<linearGradient id="paint0_linear" x1="15.4873" y1="29.9753" x2="15.4873" y2="0" gradientUnits="userSpaceOnUse">
<stop stop-color="#00E581"/>
<stop offset="0.1593" stop-color="#00AE4F"/>
<stop offset="0.2384" stop-color="#00983B"/>
<stop offset="0.2982" stop-color="#00A134"/>
<stop offset="0.3943" stop-color="#00B920"/>
<stop offset="0.5142" stop-color="#00DF00"/>
<stop offset="0.7224" stop-color="#00F350"/>
<stop offset="0.9484" stop-color="#00E500"/>
</linearGradient>
</defs>
</svg>
