<?xml version="1.0" encoding="utf-8"?>
<!-- Generator: Adobe Illustrator 19.0.0, SVG Export Plug-In . SVG Version: 6.00 Build 0)  -->
<svg version="1.1" id="Capa_1" xmlns="http://www.w3.org/2000/svg" xmlns:xlink="http://www.w3.org/1999/xlink" x="0px" y="0px"
	 viewBox="-448 253 62 56" style="enable-background:new -448 253 62 56;" xml:space="preserve">
<style type="text/css">
	.st0{fill:#FFFFFF;}
	.st1{fill:#00B3FF;}
</style>
<path class="st0" d="M-386.4,279.9c-1.5,17.2-12.9,26.3-30.8,28.8c-16.8,2.4-29.5-9.4-30.7-26.6c-1.4-21,13.9-26.6,30.8-28.8
	C-401.1,251.1-384.8,262.2-386.4,279.9z"/>
<path class="st1" d="M-402.8,264h-26.7c-2.2,0-3.7,1.4-3.7,3.7v26.7c0,2.2,1.5,3.6,3.6,3.6h26.7c2.2,0,3.7-1.4,3.7-3.7v-26.6
	C-399.1,265.4-400.6,264-402.8,264z M-431.2,287.8v-20.2c0-1.1,0.6-1.6,1.6-1.6h26.7c1.1,0,1.7,0.6,1.7,1.7v21.4
	c0,0.1-0.1,0.2-0.1,0.2c-0.1,0-0.2,0-0.3,0l-0.1-0.1c-0.1-0.1-0.2-0.2-0.2-0.2l-4.8-4.8c-0.6-0.6-1-0.6-1.7-0.1l-4.2,3.1
	c-0.1,0.1-0.2,0.1-0.3,0l-3.7-3.2c-0.9-0.8-1.7-1.5-2.6-2.3c-0.6-0.5-1-0.5-1.6,0l-9.8,7.8c-0.1,0.1-0.1,0.1-0.2,0.2l-0.2,0.1h-0.1
	h-0.1c-0.1,0-0.1-0.1-0.1-0.2v-1.8H-431.2z M-401.1,294.4c0,1-0.6,1.6-1.6,1.6h-26.8c-1,0-1.6-0.6-1.6-1.6v-0.3c0-0.4,0-0.8,0-1.1
	c0-0.2,0.1-0.4,0.2-0.5c3.2-2.6,6.4-5.1,9.6-7.7l1.2-0.9c0,0,0.1,0,0.1-0.1c0.1,0,0.2,0,0.3,0l5.3,4.7c1.6,1.4,3.2,2.9,4.9,4.3
	c0.5,0.4,1.1,0.4,1.5,0c0.2-0.2,0.3-0.4,0.3-0.7c0-0.3-0.2-0.6-0.4-0.8c-0.5-0.5-1.1-1-1.7-1.5l-1.1-1c-0.1,0-0.1-0.1-0.1-0.2
	c0-0.1,0-0.1,0.1-0.2l3.1-2.3c0.1-0.1,0.2-0.1,0.3,0l0.8,0.8c0.7,0.7,1.5,1.5,2.2,2.2l0.2,0.2c0.9,0.9,1.9,1.9,2.8,2.8
	c0.2,0.2,0.3,0.5,0.3,0.8s0,0.6,0,1L-401.1,294.4z"/>
<path class="st1" d="M-408.6,268.5c-1.2,0-2.4,0.5-3.3,1.4c-0.9,0.9-1.4,2.1-1.4,3.3c0,2.6,2.1,4.7,4.7,4.7s4.7-2.1,4.7-4.7
	C-403.9,270.6-406,268.5-408.6,268.5z M-406.7,275.1c-0.5,0.5-1.2,0.8-1.9,0.8c-1.5,0-2.7-1.2-2.7-2.7c0-0.7,0.3-1.4,0.8-1.9
	s1.2-0.8,1.9-0.8c0.7,0,1.4,0.3,1.9,0.8s0.8,1.2,0.8,1.9C-405.9,273.9-406.2,274.6-406.7,275.1z"/>
</svg>
