<svg width="62" height="56" viewBox="0 0 62 56" fill="none" xmlns="http://www.w3.org/2000/svg">
<path d="M61.5892 26.8768C60.0892 44.0768 48.6892 53.1768 30.7892 55.6768C13.9892 58.0768 1.28917 46.2768 0.0891689 29.0768C-1.31083 8.07685 13.9892 2.47685 30.8892 0.276846C46.8892 -1.92315 63.1892 9.17685 61.5892 26.8768Z" fill="#00B3FF"/>
<path d="M44.5068 27.4276C44.5068 25.6708 43.1807 24.2148 41.4785 24.0097V15.1845C41.4785 14.6444 41.1299 14.1864 40.6035 14.0429C40.084 13.8993 39.5508 14.1249 39.2773 14.5898C37.4111 17.7958 34.4785 19.9901 30.5479 21.1044C27.5811 21.9521 25.127 21.829 25.1064 21.8222C25.0723 21.8222 25.0381 21.8222 24.9971 21.8222H18.7217C15.5635 21.829 13 24.3993 13 27.5507C13 30.5243 15.2764 32.9716 18.1748 33.245L20.0684 41.0312C20.3213 42.0634 21.2373 42.7812 22.2969 42.7812H23.6094C24.3203 42.7812 24.9766 42.4599 25.4141 41.9062C25.8516 41.3524 26.0088 40.6347 25.8379 39.9442L24.2109 33.2655H24.9902C25.0244 33.2724 25.0586 33.2724 25.0996 33.2655C25.127 33.2655 27.5742 33.1425 30.541 33.9833C34.4648 35.0976 37.4043 37.2919 39.2705 40.498C39.4893 40.8739 39.8721 41.0858 40.2822 41.0858C40.3848 41.0858 40.4941 41.0722 40.5967 41.0448C41.1162 40.9013 41.4717 40.4433 41.4717 39.9032V31.0917C43.1738 30.8866 44.5 29.4306 44.5 27.6737L44.5068 27.4276ZM24.2998 39.3837L24.5186 40.2724C24.5869 40.5526 24.5254 40.8398 24.3477 41.0653C24.1699 41.2909 23.9033 41.4208 23.623 41.4208H22.2969C21.8662 41.4208 21.4971 41.1269 21.3945 40.7167L19.5898 33.2724H22.8096L23.2949 35.2548H22.9668C22.5908 35.2548 22.2832 35.5624 22.2832 35.9384C22.2832 36.3144 22.5908 36.622 22.9668 36.622H23.623L23.9648 38.0165H23.7529C23.377 38.0165 23.0693 38.3241 23.0693 38.7001C23.0693 39.0761 23.377 39.3837 23.7529 39.3837H24.2998ZM24.3818 28.9999H20.1367C19.7607 28.9999 19.4531 29.3075 19.4531 29.6835C19.4531 30.0595 19.7607 30.3671 20.1367 30.3671H24.3818V31.8983H23.3838C23.3701 31.8983 23.3564 31.8983 23.3428 31.8983H18.7217C18.7148 31.8983 18.708 31.8983 18.7012 31.8983C16.3086 31.8847 14.3672 29.9364 14.3672 27.5439C14.3672 25.1444 16.3223 23.1894 18.7217 23.1894H24.3887L24.3818 28.9999ZM40.1113 24.6659V30.4355V39.2538C38.0605 36.0683 34.8818 33.7987 30.8828 32.6708C28.668 32.0487 26.7471 31.9189 25.7559 31.9052V29.6903V23.203C26.7471 23.1894 28.668 23.0595 30.8828 22.4374C34.8887 21.3095 38.0674 19.0399 40.1113 15.8544V24.6659ZM43.1396 27.6737C43.1396 28.6786 42.4219 29.5126 41.4785 29.704V25.3837C42.4287 25.5751 43.1396 26.4159 43.1396 27.414V27.6737Z" fill="white" stroke="white" stroke-width="0.5"/>
<path d="M44.712 23.5653C44.8761 23.5653 45.0401 23.5038 45.17 23.3876L47.1388 21.5897C47.419 21.3368 47.4395 20.9062 47.1866 20.6259C46.9337 20.3456 46.503 20.3251 46.2227 20.578L44.254 22.3759C43.9737 22.6288 43.9532 23.0595 44.2061 23.3397C44.3429 23.4901 44.5274 23.5653 44.712 23.5653Z" fill="white" stroke="white" stroke-width="0.5"/>
<path d="M45.17 31.7138C44.8897 31.4608 44.4591 31.4814 44.2061 31.7616C43.9532 32.0419 43.9737 32.4726 44.254 32.7255L46.2227 34.5233C46.3526 34.6396 46.5167 34.7011 46.6808 34.7011C46.8653 34.7011 47.0499 34.6259 47.1866 34.4755C47.4395 34.1952 47.419 33.7646 47.1388 33.5116L45.17 31.7138Z" fill="white" stroke="white" stroke-width="0.5"/>
<path d="M47.3164 26.8671H45.8057C45.4297 26.8671 45.1221 27.1747 45.1221 27.5507C45.1221 27.9267 45.4297 28.2343 45.8057 28.2343H47.3164C47.6924 28.2343 48 27.9267 48 27.5507C48 27.1747 47.6924 26.8671 47.3164 26.8671Z" fill="white" stroke="white" stroke-width="0.5"/>
<path d="M17.9492 29.4237C17.9355 29.3827 17.9082 29.3417 17.8877 29.3075C17.8604 29.2733 17.833 29.2323 17.8057 29.205C17.7715 29.1708 17.7373 29.1435 17.7031 29.123C17.6689 29.0956 17.6279 29.0751 17.5869 29.0614C17.5459 29.0478 17.5049 29.0341 17.457 29.0204C17.3682 28.9999 17.2793 28.9999 17.1904 29.0204C17.1494 29.0273 17.1016 29.0409 17.0605 29.0614C17.0195 29.0819 16.9785 29.1024 16.9443 29.123C16.9102 29.1503 16.8691 29.1776 16.8418 29.205C16.8145 29.2323 16.7803 29.2733 16.7598 29.3075C16.7324 29.3417 16.7119 29.3827 16.6982 29.4237C16.6846 29.4648 16.6709 29.5058 16.6572 29.5536C16.6436 29.6015 16.6436 29.6425 16.6436 29.6903C16.6436 29.7382 16.6504 29.7792 16.6572 29.8271C16.6641 29.8681 16.6777 29.9159 16.6982 29.9569C16.7119 29.998 16.7393 30.039 16.7598 30.0732C16.7871 30.1073 16.8145 30.1483 16.8418 30.1757C16.876 30.2099 16.9102 30.2372 16.9443 30.2577C16.9785 30.2851 17.0195 30.3056 17.0605 30.3192C17.1016 30.3329 17.1426 30.3466 17.1904 30.3603C17.2383 30.3671 17.2793 30.3739 17.3271 30.3739C17.375 30.3739 17.416 30.3671 17.4639 30.3603C17.5049 30.3534 17.5527 30.3398 17.5937 30.3192C17.6348 30.3056 17.6758 30.2782 17.71 30.2577C17.751 30.2304 17.7852 30.203 17.8125 30.1757C17.8467 30.1415 17.874 30.1073 17.8945 30.0732C17.9219 30.039 17.9424 29.998 17.9561 29.9569C17.9697 29.9159 17.9834 29.8749 17.9971 29.8271C18.0039 29.786 18.0107 29.7382 18.0107 29.6903C18.0107 29.6425 18.0039 29.6015 17.9971 29.5536C17.9902 29.5058 17.9697 29.4648 17.9492 29.4237Z" fill="white" stroke="white" stroke-width="0.5"/>
</svg>
