<?xml version="1.0" encoding="utf-8"?>
<!-- Generator: Adobe Illustrator 19.0.0, SVG Export Plug-In . SVG Version: 6.00 Build 0)  -->
<svg version="1.1" id="Capa_1" xmlns="http://www.w3.org/2000/svg" xmlns:xlink="http://www.w3.org/1999/xlink" x="0px" y="0px"
	 viewBox="-448 253 62 56" style="enable-background:new -448 253 62 56;" xml:space="preserve">
<style type="text/css">
	.st0{fill:#FFFFFF;}
	.st1{fill:#531BA2;}
</style>
<g>
	<path class="st0" d="M-386.4,279.9c-1.5,17.2-12.9,26.3-30.8,28.8c-16.8,2.4-29.5-9.4-30.7-26.6c-1.4-21,13.9-26.6,30.8-28.8
		C-401.1,251.1-384.8,262.2-386.4,279.9z"/>
	<path class="st1" d="M-412.2,272c-0.8,0-1.6,0.3-2.2,0.7c-0.4,0.3-0.6,0.9-0.3,1.3s0.8,0.6,1.3,0.3l0.1-0.1l0.1-0.1
		c0.8-0.4,1.5-0.3,2.2,0.2c0.7,0.5,1,1.2,0.9,2c-0.1,0.6-0.4,1.1-0.9,1.5c-0.4,0.3-0.5,0.8-0.3,1.2c0.2,0.3,0.5,0.5,0.8,0.5
		c0.1,0,0.2,0,0.3,0c0.2-0.1,0.4-0.2,0.5-0.3c1.3-1.1,1.9-2.9,1.3-4.5C-408.9,273.1-410.4,272-412.2,272z"/>
	<path class="st1" d="M-409.4,269.1c-1.4-1.4-2.7-2.4-4.2-3.1c-1.1-0.5-2-0.7-2.9-0.5c-1.1,0.1-1.8,0.7-2.3,1.6l-0.5,1
		c-1.6,3.3-3.3,6.6-4.9,9.9c-0.1,0.2-0.2,0.3-0.4,0.4c-0.6,0.4-1.2,0.8-1.7,1.2c-0.3,0.2-0.7,0.5-1,0.7c-1.6,1.1-2.3,2.6-2.2,4.5
		c0.2,2.3,2.3,4.4,4.6,4.4c1,0,1.8-0.2,2.7-0.7c0,0.1,0.1,0.1,0.1,0.2l1.5,2.2c1.1,1.6,2.2,3.2,3.3,4.8c0.6,0.9,1.6,1.5,2.7,1.5
		c0.1,0,0.1,0,0.2,0c1.1-0.1,2-0.6,2.5-1.6c0.6-1.1,0.5-2.2-0.2-3.3c-0.5-0.8-1.1-1.6-1.6-2.4l-2.6-3.8l2.1-0.2
		c2.6-0.2,5.2-0.4,7.7-0.6c0.8-0.1,1.5-0.4,2-1s0.8-1.3,0.9-2.3c0.2-1.4,0-2.8-0.6-4.4C-405.2,274.5-406.9,271.6-409.4,269.1z
		 M-420.4,285.2c-0.3,0.2-0.5,0.3-0.8,0.5c-0.7,0.5-1.4,1-2.2,1.4c-1.3,0.7-2.9,0.2-3.8-1.2c-0.8-1.3-0.5-2.9,0.7-3.8
		c0.6-0.4,1.2-0.9,1.8-1.3l0.8-0.5L-420.4,285.2z M-417.2,271.6c-0.1-0.2-0.1-0.5-0.2-0.8c0-0.3-0.1-0.5-0.1-0.8v-0.3
		c0-0.1,0-0.2,0-0.3c0-0.2,0-0.4,0.1-0.6c0.1-0.6,0.3-1,0.7-1.2c0.4-0.2,0.8-0.3,1.4-0.2c0.9,0.2,1.8,0.7,2.9,1.5
		c1.8,1.3,3.3,3.1,4.7,5.4c1.1,1.8,1.8,3.4,2.1,4.9c0.2,1,0.3,1.8,0.1,2.6c-0.1,0.5-0.3,0.9-0.6,1.1c-0.4,0.4-0.9,0.5-1.4,0.4
		c-1-0.2-2-0.7-3-1.6C-413.8,279.1-416,275.7-417.2,271.6z M-420.2,287.3c0.5-0.3,0.9-0.6,1.4-0.9c0.2-0.1,0.4,0,0.5,0.1l4.7,6.9
		c0.3,0.5,0.3,0.9,0.1,1.4c-0.2,0.4-0.6,0.6-1.1,0.6c-0.4,0-0.7-0.2-1-0.6c-1.1-1.6-2.2-3.2-3.3-4.8l-1.6-2.4L-420.2,287.3z
		 M-418.7,284.3c-0.5-0.7-1-1.5-1.5-2.2c-0.7-1-1.4-2.1-2.1-3.1c0,0,0-0.1,0-0.2c1-2.1,2.1-4.2,3.1-6.3l0.2-0.5
		c1.4,4.8,4.1,8.8,8,11.8c-0.1,0-0.1,0-0.2,0l-2.5,0.2c-1.6,0.1-3.2,0.3-4.8,0.4C-418.6,284.4-418.6,284.4-418.7,284.3z"/>
	<path class="st1" d="M-404.1,270.4c1.5-1,3-2,4.6-3c0.3-0.2,0.5-0.4,0.5-0.7c0-0.2,0-0.5-0.2-0.7c-0.3-0.5-0.9-0.5-1.4-0.2
		l-2.8,1.8c-0.6,0.4-1.3,0.8-1.9,1.2c-0.4,0.3-0.6,0.7-0.4,1.1c0.2,0.4,0.5,0.6,1,0.6h0.1h0.1C-404.4,270.6-404.2,270.5-404.1,270.4
		z"/>
	<path class="st1" d="M-409.4,266.5c0.6,0,1-0.4,1-0.9c0.2-1.7,0.4-3.4,0.5-5.1c0.1-0.6-0.3-1-0.8-1.1c-0.3,0-0.5,0-0.7,0.2
		c-0.2,0.2-0.3,0.4-0.4,0.7c0,0.3-0.1,0.5-0.1,0.8l-0.4,4.3C-410.3,266-410,266.4-409.4,266.5z"/>
	<path class="st1" d="M-397,274.8l-4.3-0.1c-0.3,0-0.5,0-0.8,0c-0.3,0.1-0.5,0.1-0.7,0.3c-0.2,0.2-0.2,0.4-0.3,0.7
		c0,0.5,0.4,1,1,0.9c1.7,0.1,3.4,0.1,5.1,0.1c0.5,0.1,0.9-0.3,1-0.9C-396.1,275.2-396.5,274.8-397,274.8z"/>
</g>
</svg>
