<?xml version="1.0" encoding="utf-8"?>
<!-- Generator: Adobe Illustrator 19.0.0, SVG Export Plug-In . SVG Version: 6.00 Build 0)  -->
<svg version="1.1" id="Capa_1" xmlns="http://www.w3.org/2000/svg" xmlns:xlink="http://www.w3.org/1999/xlink" x="0px" y="0px"
	 viewBox="-448 253 62 56" style="enable-background:new -448 253 62 56;" xml:space="preserve">
<style type="text/css">
	.st0{fill:#FFFFFF;}
	.st1{fill:#007FFF;}
</style>
<path class="st0" d="M-386.4,279.9c-1.5,17.2-12.9,26.3-30.8,28.8c-16.8,2.4-29.5-9.4-30.7-26.6c-1.4-21,13.9-26.6,30.8-28.8
	C-401.1,251.1-384.8,262.2-386.4,279.9z"/>
<path class="st1" d="M-420.9,275.6v10.9c0,0.2,0.1,0.5,0.4,0.6c0.2,0.1,0.5,0.1,0.7-0.1l7.5-5.4c0.2-0.1,0.3-0.3,0.3-0.5
	s-0.1-0.4-0.3-0.5l-7.5-5.4c-0.1-0.1-0.2-0.1-0.4-0.1c-0.1,0-0.2,0-0.3,0.1C-420.7,275.1-420.9,275.3-420.9,275.6z"/>
<path class="st1" d="M-416.1,263.2c-9.8,0-17.8,8-17.8,17.8c0,9.8,8,17.7,17.8,17.7s17.8-8,17.8-17.7c0-4.7-1.8-9.2-5.2-12.6
	C-406.9,265.1-411.4,263.2-416.1,263.2z M-405.4,291.8c-2.9,2.9-6.7,4.5-10.8,4.5c-8.4,0-15.2-6.8-15.2-15.2
	c0-8.4,6.8-15.2,15.2-15.2s15.2,6.8,15.2,15.2C-400.9,285.1-402.5,288.9-405.4,291.8z"/>
</svg>
