<svg width="31" height="30" viewBox="0 0 31 30" fill="none" xmlns="http://www.w3.org/2000/svg">
<path d="M15.5 8.4375C17.6797 8.4375 17.9703 8.4375 18.8422 8.48438C19.6656 8.53125 20.1016 8.67188 20.3922 8.76562C20.7797 8.90625 21.0703 9.09375 21.3609 9.375C21.6516 9.65625 21.8453 9.9375 21.9906 10.3125C22.0875 10.5938 22.2328 11.0156 22.2812 11.8125C22.3297 12.6562 22.3297 12.8906 22.3297 15.0469C22.3297 17.2031 22.3297 17.4375 22.2812 18.2812C22.2328 19.0781 22.0875 19.5 21.9906 19.7812C21.8453 20.1562 21.6516 20.4375 21.3609 20.7188C21.0703 21 20.7797 21.1875 20.3922 21.3281C20.1016 21.4219 19.6656 21.5625 18.8422 21.6094C17.9703 21.6562 17.7281 21.6562 15.5 21.6562C13.3203 21.6562 13.0297 21.6562 12.1578 21.6094C11.3344 21.5625 10.8984 21.4219 10.6078 21.3281C10.2203 21.1875 9.92969 21 9.63906 20.7188C9.34844 20.4375 9.15469 20.1562 9.00938 19.7812C8.9125 19.5 8.76719 19.0781 8.71875 18.2812C8.76719 17.3906 8.71875 17.1094 8.71875 15C8.71875 12.8906 8.71875 12.6094 8.76719 11.7656C8.81563 10.9688 8.96094 10.5469 9.05781 10.2656C9.20312 9.89062 9.39688 9.60938 9.6875 9.32812C9.97812 9.04688 10.2688 8.85938 10.6562 8.71875C10.9469 8.625 11.3828 8.48438 12.2063 8.4375C13.0297 8.48438 13.2719 8.4375 15.5 8.4375ZM15.5 7.03125C13.2719 7.03125 12.9812 7.03125 12.1094 7.07812C11.2375 7.125 10.6562 7.26562 10.1234 7.45312C9.59062 7.64062 9.10625 7.92188 8.67031 8.39062C8.23438 8.8125 7.94375 9.28125 7.70156 9.79688C7.50781 10.3125 7.3625 10.875 7.31406 11.7188C7.26562 12.5625 7.26562 12.8438 7.26562 15C7.26562 17.1562 7.26562 17.4375 7.31406 18.2812C7.3625 19.125 7.50781 19.6875 7.70156 20.2031C7.89531 20.7188 8.18594 21.1875 8.67031 21.6094C9.10625 22.0312 9.59062 22.3125 10.1234 22.5469C10.6562 22.7344 11.2375 22.875 12.1094 22.9219C12.9812 22.9688 13.2719 22.9688 15.5 22.9688C17.7281 22.9688 18.0187 22.9688 18.8906 22.9219C19.7625 22.875 20.3438 22.7344 20.8766 22.5469C21.4094 22.3594 21.8937 22.0781 22.3297 21.6094C22.7656 21.1875 23.0562 20.7188 23.2984 20.2031C23.4922 19.6875 23.6375 19.125 23.6859 18.2812C23.7344 17.4375 23.7344 17.1562 23.7344 15C23.7344 12.8438 23.7344 12.5625 23.6859 11.7188C23.6375 10.875 23.4922 10.3125 23.2984 9.79688C23.1047 9.28125 22.8141 8.8125 22.3297 8.39062C21.8937 7.96875 21.4094 7.6875 20.8766 7.45312C20.3438 7.26562 19.7625 7.125 18.8906 7.07812C18.0187 7.03125 17.7281 7.03125 15.5 7.03125ZM15.5 10.875C13.175 10.875 11.2859 12.7031 11.2859 14.9531C11.2859 17.2031 13.175 19.0312 15.5 19.0312C17.825 19.0312 19.7141 17.2031 19.7141 14.9531C19.7141 12.75 17.825 10.875 15.5 10.875ZM15.5 17.625C13.9984 17.625 12.7391 16.4531 12.7391 14.9531C12.7391 13.5 13.95 12.2812 15.5 12.2812C17.05 12.2812 18.2609 13.4531 18.2609 14.9531C18.2125 16.4531 17.0016 17.625 15.5 17.625ZM20.8766 10.7344C20.8766 10.2188 20.4406 9.79688 19.9078 9.79688C19.375 9.79688 18.9391 10.2188 18.9391 10.7344C18.9391 11.25 19.375 11.6719 19.9078 11.6719C20.4406 11.6719 20.8766 11.25 20.8766 10.7344ZM15.5 0C6.92656 0 0 6.70312 0 15C0 23.2969 6.92656 30 15.5 30C24.025 30 31 23.2969 31 15C31 6.70312 24.025 0 15.5 0ZM15.5 29.0625C7.45937 29.0625 0.920312 22.7344 0.920312 15C0.920312 7.21875 7.45937 0.890625 15.5 0.890625C23.4922 0.890625 30.0312 7.21875 30.0312 15C30.0312 22.7344 23.4922 29.0625 15.5 29.0625Z" fill="url(#paint0_linear)"/>
<defs>
<linearGradient id="paint0_linear" x1="15.4873" y1="29.9753" x2="15.4873" y2="0" gradientUnits="userSpaceOnUse">
<stop offset="0.0011048" stop-color="#FFE286"/>
<stop offset="0.2094" stop-color="#FFBC36"/>
<stop offset="0.3765" stop-color="#FF5176"/>
<stop offset="0.5238" stop-color="#F73396"/>
<stop offset="0.7394" stop-color="#A536D3"/>
<stop offset="1" stop-color="#5F4EEE"/>
</linearGradient>
</defs>
</svg>
