<svg width="31" height="30" viewBox="0 0 31 30" fill="none" xmlns="http://www.w3.org/2000/svg">
<path d="M12.4 18.5156C10.9469 18.4688 9.73594 17.5781 9.34844 16.3125C9.88125 16.4062 10.3656 16.3594 10.85 16.2656C9.25156 15.9375 8.18594 14.5781 8.23438 13.125C8.67031 13.3594 9.20312 13.5 9.73594 13.5C8.28281 12.5625 7.84688 10.6875 8.71875 9.23438C10.3172 11.1562 12.7391 12.4219 15.5 12.5625C15.0156 10.5938 16.5656 8.67188 18.6969 8.67188C19.6656 8.67188 20.4891 9.04688 21.0703 9.65625C21.7969 9.51562 22.5234 9.23438 23.1531 8.90625C22.9109 9.65625 22.3781 10.2656 21.7 10.6875C22.3781 10.5938 23.0078 10.4531 23.5891 10.1719C23.1531 10.8281 22.5719 11.3906 21.9422 11.8125C22.1359 16.2656 18.6969 21.2812 12.5938 21.2812C10.7531 21.2812 9.00938 20.7656 7.55625 19.875C9.25156 20.0625 10.9953 19.5938 12.4 18.5156ZM31 15C31 23.25 24.0734 30 15.5 30C6.975 30 0 23.2969 0 15C0 6.70312 6.975 0 15.5484 0C24.0734 0 31 6.70312 31 15ZM30.0797 15C30.0797 7.21875 23.5406 0.890625 15.5484 0.890625C7.50781 0.890625 0.96875 7.21875 0.96875 15C0.96875 22.7344 7.50781 29.0625 15.5484 29.0625C23.5406 29.0625 30.0797 22.7344 30.0797 15Z" fill="url(#paint0_linear)"/>
<defs>
<linearGradient id="paint0_linear" x1="15.5357" y1="29.9753" x2="15.5357" y2="0" gradientUnits="userSpaceOnUse">
<stop stop-color="#0080FF"/>
<stop offset="1" stop-color="#00CDFF"/>
</linearGradient>
</defs>
</svg>
