<svg width="31" height="30" viewBox="0 0 31 30" fill="none" xmlns="http://www.w3.org/2000/svg">
<path d="M23.8797 10.875C23.6859 10.125 23.1047 9.5625 22.3297 9.375C20.9734 9 15.5 9 15.5 9C15.5 9 10.0266 9 8.67031 9.375C7.89531 9.5625 7.31406 10.1719 7.12031 10.875C6.73281 12.1875 6.73281 15 6.73281 15C6.73281 15 6.73281 17.7656 7.12031 19.125C7.31406 19.875 7.89531 20.4375 8.67031 20.625C10.0266 21 15.5 21 15.5 21C15.5 21 20.9734 21 22.3297 20.625C23.1047 20.4375 23.6859 19.8281 23.8797 19.125C24.2672 17.8125 24.2672 15 24.2672 15C24.2672 15 24.2672 12.1875 23.8797 10.875ZM13.7078 17.5312V12.4688L18.3094 15L13.7078 17.5312ZM15.5 0C6.92656 0 0 6.70312 0 15C0 23.2969 6.92656 30 15.5 30C24.0734 30 31 23.2969 31 15C31 6.70312 24.025 0 15.5 0ZM15.5 29.0625C7.45937 29.0625 0.920312 22.7344 0.920312 15C0.920312 7.21875 7.45937 0.890625 15.5 0.890625C23.5406 0.890625 30.0312 7.21875 30.0312 15C30.0312 22.7344 23.4922 29.0625 15.5 29.0625Z" fill="url(#paint0_linear)"/>
<defs>
<linearGradient id="paint0_linear" x1="15.4873" y1="29.9753" x2="15.4873" y2="0" gradientUnits="userSpaceOnUse">
<stop stop-color="#9B0000"/>
<stop offset="1" stop-color="#FF0000"/>
</linearGradient>
</defs>
</svg>
