<svg width="22" height="23" viewBox="0 0 22 23" fill="none" xmlns="http://www.w3.org/2000/svg">
<path fill-rule="evenodd" clip-rule="evenodd" d="M11.0005 15.0122C13.2096 15.0122 15.0005 13.2213 15.0005 11.0122C15.0005 8.80307 13.2096 7.01221 11.0005 7.01221C8.79135 7.01221 7.00049 8.80307 7.00049 11.0122C7.00049 13.2213 8.79135 15.0122 11.0005 15.0122Z" stroke="#00B3FF" stroke-width="2" stroke-linecap="round" stroke-linejoin="round"/>
<path d="M15.0006 7.01219V12.0122C15.0006 13.669 16.3437 15.0122 18.0006 15.0122C19.6574 15.0122 21.0006 13.669 21.0006 12.0122V11.0122C21.0003 6.3651 17.7987 2.33061 13.2732 1.27449C8.74773 0.218373 4.09107 2.41898 2.03385 6.58592C-0.0233774 10.7528 1.06104 15.7878 4.65122 18.7385C8.2414 21.6891 13.3911 21.7776 17.0806 18.9522" stroke="#00B3FF" stroke-width="2" stroke-linecap="round" stroke-linejoin="round"/>
</svg>
