<svg width="99" height="25" viewBox="0 0 99 25" fill="none" xmlns="http://www.w3.org/2000/svg">
<path d="M97.8363 14.4555C97.4592 14.0365 96.9984 13.827 96.4956 13.827C96.1603 13.827 95.7832 13.9527 95.3223 14.2041C94.8615 14.4555 94.5682 14.5393 94.4006 14.5393C93.9816 14.5393 93.4369 13.8689 92.6827 12.57C92.5989 12.4443 92.557 12.3605 92.5151 12.2767L91.3 10.056L92.8084 8.25429C93.1017 7.91909 93.3531 7.66769 93.5626 7.50009C93.7721 7.33249 93.9397 7.24869 94.1072 7.24869C94.3167 7.24869 94.6939 7.45819 95.2386 7.91909C95.7832 8.33809 96.286 8.58949 96.705 8.58949C97.3335 8.58949 97.8363 8.33809 98.2134 7.79339C98.5905 7.29059 98.8 6.57829 98.8 5.69839C98.8 4.39949 98.381 3.14249 97.5849 1.9693C96.7469 0.796099 95.909 0.2514 95.0709 0.2514C94.5263 0.2514 93.9397 0.460899 93.3111 0.921798C92.6827 1.3827 91.7609 2.2626 90.5039 3.64529L88.8279 5.48889L87.4871 3.1425C86.7748 1.8855 86.1882 1.0475 85.8111 0.754199C85.434 0.418999 84.9731 0.2514 84.4703 0.2514C83.5066 0.2514 82.3753 0.544699 81.0764 1.1313C79.7356 1.7179 78.3529 2.5559 76.8864 3.68719C76.0065 4.35759 75.3361 4.98609 74.9171 5.61459C74.4981 6.24309 74.2886 6.87159 74.2886 7.50009C74.2886 8.21239 74.4562 8.79899 74.8333 9.21799C75.2104 9.67888 75.6294 9.88838 76.1741 9.88838C76.5512 9.88838 77.0121 9.72079 77.5149 9.42749C78.0177 9.13419 78.311 8.96659 78.4367 8.96659C78.6462 8.96659 78.8976 9.13419 79.149 9.42749C79.4004 9.72079 79.8194 10.4331 80.406 11.5644L81.3697 13.4499L79.3585 15.4611L79.2747 15.5449C78.6881 16.1315 78.2691 16.4667 78.0177 16.4667C77.8501 16.4667 77.5568 16.2572 77.0959 15.8801C76.635 15.503 76.1741 15.2935 75.797 15.2935C75.0847 15.2935 74.4981 15.6287 74.0791 16.2991C73.6182 16.9695 73.4087 17.8913 73.4087 19.0226C73.4087 20.4891 73.7439 21.7042 74.3724 22.7517C75.0009 23.7992 75.7132 24.302 76.5093 24.302C77.0959 24.302 77.8082 24.0087 78.6462 23.4221C79.4423 22.8355 80.4479 21.8718 81.6211 20.5729L83.8418 18.1008L85.434 21.1176C86.1044 22.4584 86.691 23.2964 87.1519 23.7154C87.6128 24.1344 88.1575 24.302 88.8279 24.302C89.5402 24.302 90.462 24.0506 91.5095 23.5897C92.557 23.0869 93.5626 22.5003 94.4844 21.7461C95.8251 20.6148 96.8307 19.5254 97.5011 18.5617C98.1715 17.598 98.5067 16.6762 98.5067 15.8382C98.4229 15.3354 98.2134 14.8745 97.8363 14.4555ZM71.1461 17.2628C71.1042 17.2628 71.0204 17.2628 70.9366 17.2209C70.0148 17.1371 69.5539 16.8438 69.5539 16.4248V16.341L69.6796 14.2879C69.7215 13.9946 69.8053 13.1147 70.0148 11.6901C70.2243 10.2655 70.4338 8.63139 70.6852 6.74589L71.2718 2.3464C71.2718 2.2626 71.3137 2.1788 71.3137 2.095C71.3137 2.0112 71.3137 1.8855 71.3137 1.7179C71.3137 1.2151 71.188 0.837999 70.8947 0.586599C70.6014 0.377099 70.1824 0.2514 69.5539 0.2514C68.3388 0.2514 67.0399 0.586599 65.6991 1.2151C64.3583 1.8855 63.6041 2.1788 63.5622 2.1788C63.5203 2.1788 62.8918 1.8017 61.5929 1.0894C60.5035 0.460899 59.3722 0.1257 58.2409 0.0418999C58.0314 0.0418999 57.8219 0 57.6543 0C56.1878 0 54.5537 0.544699 52.8358 1.5922C51.1179 2.6397 49.4838 4.10619 48.0173 5.94979C46.6765 7.62579 45.629 9.38559 44.9586 11.2292C44.2463 13.0728 43.9111 14.9164 43.9111 16.76C43.9111 19.1483 44.4558 20.9919 45.5452 22.2908C46.6346 23.5897 48.1849 24.2601 50.1123 24.2601C51.3693 24.2601 52.5844 24.0087 53.7576 23.5059C54.9308 23.0031 56.104 22.2489 57.3191 21.2014C57.4448 21.0757 57.6543 20.9081 57.8638 20.6986C58.0314 20.5729 58.1571 20.4472 58.2828 20.3634C58.4923 20.1958 58.7018 20.112 58.8275 20.112C59.1208 20.112 59.2884 20.531 59.4141 21.369C59.456 21.788 59.4979 22.1232 59.5398 22.3746C59.6655 23.045 59.9588 23.5059 60.4197 23.8411C60.8806 24.1763 61.5091 24.302 62.2633 24.302C63.227 24.302 64.3164 24.0925 65.5734 23.7154C66.8304 23.2964 68.0036 22.7936 69.093 22.1232C70.0567 21.5366 70.8109 20.9081 71.3137 20.2796C71.8165 19.6511 72.0679 19.0226 72.0679 18.3941C72.0679 18.0589 71.9841 17.8075 71.8584 17.598C71.5651 17.3885 71.3975 17.2628 71.1461 17.2628ZM60.7968 10.0141C60.3359 11.3549 59.7074 12.6538 58.9532 13.9108C58.7018 14.3717 58.4085 14.7488 58.1571 15.084C57.8219 15.503 57.5286 15.8801 57.2353 16.1315C56.6906 16.6343 56.2297 16.8857 55.7688 16.8857C55.5174 16.8857 55.266 16.76 55.0984 16.4667C54.9308 16.2153 54.847 15.8382 54.847 15.4192C54.847 14.5812 55.0146 13.5756 55.4336 12.4024C55.8107 11.2292 56.3554 10.056 56.9839 8.92469C57.4029 8.21239 57.78 7.62579 58.1571 7.12299C58.4504 6.74589 58.7018 6.45259 58.9532 6.20119C59.5398 5.61459 60.0845 5.32129 60.5454 5.32129C60.7968 5.32129 61.0482 5.44699 61.2158 5.65649C61.3834 5.90789 61.4672 6.20119 61.4672 6.57829C61.4672 7.50009 61.2577 8.63139 60.7968 10.0141ZM41.439 17.6818C41.3133 17.6399 41.1457 17.6399 40.9781 17.598C40.0982 17.4304 39.6373 17.0533 39.6373 16.4248C39.6373 15.7125 39.8887 14.1203 40.3496 11.732C40.8105 9.34369 41.02 7.33249 41.02 5.74029C41.02 4.06429 40.6429 2.7654 39.8468 1.8855C39.0507 1.0056 37.9194 0.586599 36.411 0.586599C35.3635 0.586599 34.2741 0.796099 33.2266 1.2151C32.1791 1.6341 30.9222 2.3045 29.5395 3.31009C29.2043 3.51959 28.8272 3.81289 28.3663 4.14809C27.9054 4.48329 27.654 4.69279 27.5283 4.69279C27.3188 4.69279 27.1512 4.44139 27.0255 4.02239C26.8998 3.64529 26.816 3.39389 26.7322 3.22629C26.2713 2.2626 25.7266 1.5922 25.0981 1.1732C24.4696 0.754199 23.6316 0.586599 22.626 0.586599C21.788 0.586599 20.9081 0.754199 20.0282 1.0475C19.1064 1.3408 18.2684 1.8017 17.4304 2.3464L16.9276 2.7235C15.1259 3.93859 14.0365 4.56709 13.7013 4.56709C13.408 4.56709 13.2404 4.14809 13.1566 3.26819C13.0728 2.3883 12.989 1.8017 12.7795 1.4246C12.6538 1.1313 12.4443 0.921799 12.1091 0.796099C11.7739 0.670399 11.313 0.586599 10.6845 0.586599C9.59509 0.586599 8.42189 0.754199 7.12299 1.1313C5.82409 1.5084 4.65089 1.9693 3.56149 2.6397C2.0112 3.51959 1.0475 4.14809 0.628499 4.60899C0.2095 5.02799 0 5.53079 0 6.07549C0 6.57829 0.1676 6.95539 0.460899 7.16489C0.796099 7.37439 1.3408 7.45819 2.095 7.45819C2.5978 7.45819 2.8911 7.54199 3.0587 7.75149C3.35199 7.83529 3.43579 8.17049 3.43579 8.71519C3.43579 9.05039 3.43579 9.30179 3.39389 9.46939C3.39389 9.67889 3.35199 9.84648 3.31009 10.0141L2.6816 14.4136C2.4721 15.7963 2.2207 17.3885 1.8436 19.1483C1.5084 20.95 1.3408 22.0394 1.3408 22.3746C1.3408 23.1288 1.5922 23.6735 2.095 24.0506C2.5978 24.4277 3.35199 24.5953 4.35759 24.5953C5.82409 24.5953 7.16489 24.4277 8.33809 24.1344C9.55319 23.8411 10.3912 23.464 10.9359 23.0031C11.5644 22.5003 11.9834 21.0757 12.2348 18.8131L12.2767 18.6455C12.7795 14.1622 13.3242 11.2292 13.8689 9.93028C14.4136 8.63139 15.1678 7.96099 16.0896 7.96099C16.4248 7.96099 16.6762 8.08669 16.8857 8.37999C17.0533 8.67329 17.179 9.05039 17.179 9.51129C17.179 9.67889 17.179 9.84649 17.179 9.97219C17.179 10.0979 17.1371 10.1817 17.1371 10.2655L16.5505 14.0784C16.3829 15.2935 16.0896 16.8438 15.7544 18.7293C15.3354 20.6148 15.1678 21.8299 15.1678 22.3746C15.1678 23.0869 15.4611 23.6316 16.0058 24.0087C16.5924 24.3858 17.3885 24.5534 18.4779 24.5534C19.6511 24.5534 20.7824 24.3858 21.9137 24.0925C23.045 23.7992 23.883 23.4221 24.4696 23.0031C25.2657 22.4165 25.7266 21.1176 25.8942 19.1483C25.8942 19.0645 25.9361 18.9807 25.9361 18.8969C26.2713 14.8326 26.7741 11.9415 27.3607 10.3493C27.9473 8.71519 28.7853 7.91909 29.8328 7.91909C30.2099 7.91909 30.4613 8.00289 30.6289 8.21239C30.7965 8.37999 30.8803 8.67329 30.8803 9.05039C30.8803 9.21799 30.8803 9.34369 30.8803 9.38558C30.8803 9.46939 30.8384 9.51128 30.8384 9.59509L30.3356 13.0309C30.2099 14.0784 29.9585 15.5868 29.6233 17.4723C29.2881 19.3997 29.1205 20.6567 29.1205 21.2852C29.1205 22.3327 29.4557 23.1707 30.1261 23.7154C30.7964 24.302 31.7601 24.5534 32.9752 24.5534C34.0227 24.5534 35.1121 24.3858 36.1596 24.0087C37.249 23.6316 38.2965 23.1288 39.3021 22.4165C40.2239 21.788 40.9362 21.1595 41.3971 20.531C41.858 19.9025 42.1094 19.274 42.1094 18.6036C42.1094 18.3522 42.0256 18.1427 41.8999 17.9751C41.7742 17.8494 41.6485 17.7237 41.439 17.6818Z" fill="#E74E16"/>
</svg>
