<svg width="31" height="30" viewBox="0 0 31 30" fill="none" xmlns="http://www.w3.org/2000/svg">
<path d="M13.1956 14.9531H11.3036V11.9531H13.1956C13.1956 11.9531 13.1956 11.5312 13.1956 9.60938C13.1956 7.40625 14.4085 6.23438 17.1252 6.23438C17.5618 6.23438 19.6479 6.23438 19.6479 6.23438V9.32812C19.6479 9.32812 18.241 9.32812 17.6588 9.32812C16.9797 9.32812 16.8341 9.60938 16.8341 10.3125C16.8341 10.875 16.8341 12 16.8341 12H19.6479L19.3568 14.9531H16.7856V23.8125H13.1471V14.9531H13.1956ZM31 15C31 23.25 24.0626 30 15.4757 30C6.88889 30 0 23.25 0 15C0 6.75 6.9374 0 15.5243 0C24.1111 0 31 6.70312 31 15ZM30.0782 15C30.0782 7.21875 23.529 0.890625 15.5243 0.890625C7.51956 0.890625 0.921753 7.21875 0.921753 15C0.921753 22.7344 7.47105 29.0625 15.5243 29.0625C23.5775 29.0625 30.0782 22.7344 30.0782 15Z" fill="url(#paint0_linear)"/>
<defs>
<linearGradient id="paint0_linear" x1="15.5115" y1="29.9753" x2="15.5115" y2="0" gradientUnits="userSpaceOnUse">
<stop stop-color="#2B189C"/>
<stop offset="1" stop-color="#245A9C"/>
</linearGradient>
</defs>
</svg>
