<svg width="36" height="36" viewBox="0 0 36 36" fill="none" xmlns="http://www.w3.org/2000/svg">
<path d="M18 0C8.07188 0 0 8.07188 0 18C0 27.9281 8.07188 36 18 36C27.9281 36 36 27.9281 36 18C36 8.07188 27.9281 0 18 0ZM25.1578 18.6328L14.6602 25.3828C14.5336 25.4602 14.393 25.5023 14.2523 25.5023C14.1258 25.5023 14.0063 25.4742 13.8938 25.4109C13.6547 25.2773 13.5 25.0242 13.5 24.75V11.25C13.5 10.9758 13.6477 10.7227 13.8938 10.5891C14.1328 10.4555 14.4281 10.4695 14.6602 10.6172L25.1578 17.3672C25.3687 17.5078 25.5023 17.7398 25.5023 18C25.5023 18.2531 25.3687 18.4922 25.1578 18.6328Z" fill="white"/>
</svg>
