<?xml version="1.0" encoding="utf-8"?>
<!-- Generator: Adobe Illustrator 19.0.0, SVG Export Plug-In . SVG Version: 6.00 Build 0)  -->
<svg version="1.1" id="Capa_1" xmlns="http://www.w3.org/2000/svg" xmlns:xlink="http://www.w3.org/1999/xlink" x="0px" y="0px"
	 viewBox="-399.3 252.8 56.5 51.5" style="enable-background:new -399.3 252.8 56.5 51.5;" xml:space="preserve">
<style type="text/css">
	.st0{fill:#531BA2;}
	.st1{fill:#FFFFFF;}
</style>
<g>
	<g>
		<path class="st0" d="M-371,254L-371,254c13.3,0,24,10.7,24,24l0,0c0,13.3-10.7,24-24,24l0,0c-13.3,0-24-10.7-24-24l0,0
			C-395,264.7-384.3,254-371,254z"/>
	</g>
	<path class="st1" d="M-368.9,278l-7.1-6.4c-0.5-0.5-0.5-1.2,0-1.7c0.5-0.5,1.4-0.5,1.9,0l8,7.2c0.5,0.5,0.5,1.2,0,1.7l-8,7.2
		c-0.5,0.5-1.4,0.5-1.9,0c-0.5-0.5-0.5-1.2,0-1.7L-368.9,278z"/>
</g>
</svg>
